<svg width="28" height="28" viewBox="0 0 28 28" fill="none" xmlns="http://www.w3.org/2000/svg">
<mask id="path-1-outside-1_236_570" maskUnits="userSpaceOnUse" x="3.44238" y="3.39722" width="21" height="21" fill="black">
<rect fill="white" x="3.44238" y="3.39722" width="21" height="21"/>
<path d="M22.7322 23.5131L15.4265 16.2074C14.8432 16.7044 14.1724 17.089 13.414 17.3612C12.6557 17.6334 11.8935 17.7696 11.1274 17.7696C9.25916 17.7696 7.67794 17.1228 6.38372 15.8294C5.08949 14.5359 4.44238 12.9551 4.44238 11.0869C4.44238 9.21866 5.08872 7.63705 6.38138 6.34205C7.67405 5.04705 9.25449 4.39878 11.1227 4.39722C12.9909 4.39566 14.5729 5.04278 15.8687 6.33855C17.1645 7.63433 17.8124 9.21594 17.8124 11.0834C17.8124 11.8938 17.6689 12.6782 17.3819 13.4366C17.0949 14.1949 16.7177 14.8436 16.2502 15.3826L23.5559 22.6871L22.7322 23.5131ZM11.1285 16.6017C12.6763 16.6017 13.983 16.0689 15.0485 15.0034C16.1141 13.9378 16.6469 12.6308 16.6469 11.0822C16.6469 9.53366 16.1141 8.227 15.0485 7.16222C13.983 6.09744 12.6763 5.56466 11.1285 5.56389C9.58077 5.56311 8.27372 6.09589 7.20738 7.16222C6.14105 8.22855 5.60827 9.53522 5.60905 11.0822C5.60983 12.6292 6.1426 13.9359 7.20738 15.0022C8.27216 16.0686 9.57883 16.6013 11.1274 16.6006"/>
</mask>
<path d="M22.7322 23.5131L15.4265 16.2074C14.8432 16.7044 14.1724 17.089 13.414 17.3612C12.6557 17.6334 11.8935 17.7696 11.1274 17.7696C9.25916 17.7696 7.67794 17.1228 6.38372 15.8294C5.08949 14.5359 4.44238 12.9551 4.44238 11.0869C4.44238 9.21866 5.08872 7.63705 6.38138 6.34205C7.67405 5.04705 9.25449 4.39878 11.1227 4.39722C12.9909 4.39566 14.5729 5.04278 15.8687 6.33855C17.1645 7.63433 17.8124 9.21594 17.8124 11.0834C17.8124 11.8938 17.6689 12.6782 17.3819 13.4366C17.0949 14.1949 16.7177 14.8436 16.2502 15.3826L23.5559 22.6871L22.7322 23.5131ZM11.1285 16.6017C12.6763 16.6017 13.983 16.0689 15.0485 15.0034C16.1141 13.9378 16.6469 12.6308 16.6469 11.0822C16.6469 9.53366 16.1141 8.227 15.0485 7.16222C13.983 6.09744 12.6763 5.56466 11.1285 5.56389C9.58077 5.56311 8.27372 6.09589 7.20738 7.16222C6.14105 8.22855 5.60827 9.53522 5.60905 11.0822C5.60983 12.6292 6.1426 13.9359 7.20738 15.0022C8.27216 16.0686 9.57883 16.6013 11.1274 16.6006" fill="black"/>
<path d="M22.7322 23.5131L22.3787 23.8666L22.7327 24.2207L23.0863 23.8661L22.7322 23.5131ZM15.4265 16.2074L15.7801 15.8538L15.4537 15.5274L15.1023 15.8268L15.4265 16.2074ZM11.1274 17.7696V17.2696V17.7696ZM16.2502 15.3826L15.8725 15.055L15.5673 15.4068L15.8967 15.7361L16.2502 15.3826ZM23.5559 22.6871L23.9099 23.0401L24.2625 22.6865L23.9094 22.3335L23.5559 22.6871ZM23.0858 23.1595L15.7801 15.8538L15.073 16.5609L22.3787 23.8666L23.0858 23.1595ZM15.1023 15.8268C14.5672 16.2827 13.9496 16.6377 13.2451 16.8906L13.583 17.8318C14.3951 17.5403 15.1192 17.1261 15.7508 16.588L15.1023 15.8268ZM13.2451 16.8906C12.5382 17.1444 11.833 17.2696 11.1274 17.2696V18.2696C11.954 18.2696 12.7733 18.1225 13.583 17.8318L13.2451 16.8906ZM11.1274 17.2696C9.38859 17.2696 7.93544 16.6733 6.73716 15.4757L6.03027 16.183C7.42044 17.5724 9.12973 18.2696 11.1274 18.2696V17.2696ZM6.73716 15.4757C5.53896 14.2782 4.94238 12.8256 4.94238 11.0869H3.94238C3.94238 13.0846 4.64003 14.7936 6.03027 16.183L6.73716 15.4757ZM4.94238 11.0869C4.94238 9.348 5.53834 7.89436 6.73525 6.69529L6.02751 5.98882C4.63909 7.37975 3.94238 9.08933 3.94238 11.0869H4.94238ZM6.73525 6.69529C7.93204 5.49634 9.38441 4.89867 11.1231 4.89722L11.1223 3.89722C9.12458 3.89888 7.41605 4.59777 6.02751 5.98882L6.73525 6.69529ZM11.1231 4.89722C12.8615 4.89577 14.3153 5.49223 15.5152 6.69211L16.2223 5.985C14.8306 4.59332 13.1204 3.89556 11.1223 3.89722L11.1231 4.89722ZM15.5152 6.69211C16.7152 7.89213 17.3124 9.34571 17.3124 11.0834H18.3124C18.3124 9.08617 17.6138 7.37653 16.2223 5.985L15.5152 6.69211ZM17.3124 11.0834C17.3124 11.8333 17.1799 12.5578 16.9143 13.2596L17.8495 13.6135C18.1579 12.7987 18.3124 11.9543 18.3124 11.0834H17.3124ZM16.9143 13.2596C16.6453 13.9702 16.2964 14.5661 15.8725 15.055L16.628 15.7101C17.1389 15.121 17.5445 14.4195 17.8495 13.6135L16.9143 13.2596ZM15.8967 15.7361L23.2024 23.0406L23.9094 22.3335L16.6037 15.029L15.8967 15.7361ZM23.2018 22.334L22.3782 23.16L23.0863 23.8661L23.9099 23.0401L23.2018 22.334ZM11.1285 17.1017C12.8049 17.1017 14.24 16.5191 15.4021 15.3569L14.695 14.6498C13.726 15.6188 12.5477 16.1017 11.1285 16.1017V17.1017ZM15.4021 15.3569C16.5643 14.1948 17.1469 12.7593 17.1469 11.0822H16.1469C16.1469 12.5023 15.6639 13.6809 14.695 14.6498L15.4021 15.3569ZM17.1469 11.0822C17.1469 9.40515 16.5643 7.96999 15.402 6.80854L14.6951 7.5159C15.6639 8.484 16.1469 9.66218 16.1469 11.0822H17.1469ZM15.402 6.80854C14.2399 5.64729 12.805 5.06473 11.1288 5.06389L11.1283 6.06389C12.5477 6.0646 13.7261 6.54759 14.6951 7.5159L15.402 6.80854ZM11.1288 5.06389C9.45224 5.06304 8.01673 5.64577 6.85383 6.80867L7.56094 7.51577C8.53071 6.546 9.7093 6.06317 11.1283 6.06389L11.1288 5.06389ZM6.85383 6.80867C5.69098 7.97151 5.10821 9.40662 5.10905 11.0825L6.10905 11.082C6.10834 9.66382 6.59111 8.4856 7.56094 7.51577L6.85383 6.80867ZM5.10905 11.0825C5.10989 12.7579 5.6925 14.1927 6.85357 15.3555L7.56119 14.6489C6.59271 13.679 6.10976 12.5005 6.10905 11.082L5.10905 11.0825ZM6.85357 15.3555C8.01506 16.5187 9.45037 17.1014 11.1276 17.1006L11.1271 16.1006C9.70729 16.1013 8.52926 15.6184 7.56119 14.6489L6.85357 15.3555Z" fill="black" mask="url(#path-1-outside-1_236_570)"/>
</svg>
