<svg width="229" height="48" viewBox="0 0 229 48" fill="none" xmlns="http://www.w3.org/2000/svg">
<g clip-path="url(#clip0_243_755)">
<path d="M26.1864 42.7615H0V48.0111H26.1864V42.7615Z" fill="#FF7425"/>
<path d="M-0.444 8.7461H5.028C8.532 8.7461 11.112 9.3221 12.768 10.4741C14.424 11.6021 15.252 13.3901 15.252 15.8381C15.252 17.1101 15.024 18.1301 14.568 18.8981C14.136 19.6421 13.38 20.2901 12.3 20.8421C13.908 21.4901 15.06 22.3301 15.756 23.3621C16.476 24.3941 16.836 25.7501 16.836 27.4301C16.836 29.9741 15.948 31.9301 14.172 33.2981C12.42 34.6661 9.912 35.3501 6.648 35.3501H-0.444V8.7461ZM6.936 30.6341C8.664 30.6341 9.912 30.3701 10.68 29.8421C11.472 29.3141 11.868 28.4621 11.868 27.2861C11.868 26.2301 11.556 25.3901 10.932 24.7661C10.308 24.1421 9.468 23.8301 8.412 23.8301H4.488V30.6341H6.936ZM7.656 19.0061C8.496 19.0061 9.144 18.7661 9.6 18.2861C10.08 17.7821 10.32 17.1101 10.32 16.2701C10.32 14.4701 9.048 13.5701 6.504 13.5701H4.488V19.0061H7.656ZM20.0729 15.4061H24.8249V28.5821L33.7529 15.4061H38.6129V35.3501H33.8609V22.1741L24.9329 35.3501H20.0729V15.4061ZM48.9826 15.4061H52.7266L61.0426 35.3501H55.9306L50.8546 22.1021L45.7786 35.3501H40.6666L48.9826 15.4061ZM63.1042 15.4061H67.8922V24.5861L74.8042 15.4061H80.6002L72.6442 25.3061L81.0322 35.3501H74.8042L67.8922 26.1701V35.3501H63.1042V15.4061ZM82.1018 25.4501C82.1018 23.9381 82.3538 22.5461 82.8578 21.2741C83.3618 19.9781 84.0578 18.8621 84.9458 17.9261C85.8578 16.9901 86.9378 16.2581 88.1858 15.7301C89.4338 15.2021 90.7898 14.9381 92.2538 14.9381C93.6938 14.9381 94.9298 15.1901 95.9618 15.6941C96.9938 16.1741 97.9298 16.9661 98.7698 18.0701V15.4061H103.162V35.3501H98.7698V32.7581C97.8098 33.8621 96.8138 34.6541 95.7818 35.1341C94.7738 35.5901 93.5618 35.8181 92.1458 35.8181C90.6818 35.8181 89.3378 35.5661 88.1138 35.0621C86.8898 34.5341 85.8338 33.8141 84.9458 32.9021C84.0578 31.9661 83.3618 30.8741 82.8578 29.6261C82.3538 28.3541 82.1018 26.9621 82.1018 25.4501ZM86.9258 25.5581C86.9258 26.4221 87.0698 27.2141 87.3578 27.9341C87.6458 28.6541 88.0418 29.2781 88.5458 29.8061C89.0738 30.3101 89.6978 30.7061 90.4178 30.9941C91.1618 31.2821 91.9658 31.4261 92.8298 31.4261C93.6938 31.4261 94.4738 31.2821 95.1698 30.9941C95.8898 30.7061 96.5018 30.2981 97.0058 29.7701C97.5338 29.2421 97.9298 28.6181 98.1938 27.8981C98.4818 27.1541 98.6258 26.3381 98.6258 25.4501C98.6258 24.5381 98.4818 23.7101 98.1938 22.9661C97.9058 22.2221 97.4978 21.5861 96.9698 21.0581C96.4418 20.5061 95.8058 20.0861 95.0618 19.7981C94.3418 19.4861 93.5498 19.3301 92.6858 19.3301C91.8458 19.3301 91.0658 19.4861 90.3457 19.7981C89.6498 20.1101 89.0498 20.5421 88.5458 21.0941C88.0418 21.6461 87.6458 22.3061 87.3578 23.0741C87.0698 23.8181 86.9258 24.6461 86.9258 25.5581Z" fill="white"/>
<path d="M116.481 8.7461H120.369L131.493 35.3501H126.165L118.425 15.5141L110.685 35.3501H105.357L116.481 8.7461ZM132.762 25.4141C132.762 23.9501 133.038 22.5821 133.59 21.3101C134.142 20.0381 134.898 18.9341 135.858 17.9981C136.818 17.0381 137.946 16.2941 139.242 15.7661C140.562 15.2141 141.966 14.9381 143.454 14.9381C144.894 14.9381 146.25 15.2141 147.522 15.7661C148.818 16.3181 149.934 17.0741 150.87 18.0341C151.83 18.9701 152.586 20.0741 153.138 21.3461C153.69 22.6181 153.966 23.9741 153.966 25.4141C153.966 26.8541 153.69 28.2101 153.138 29.4821C152.586 30.7301 151.83 31.8221 150.87 32.7581C149.91 33.6941 148.782 34.4381 147.486 34.9901C146.214 35.5421 144.846 35.8181 143.382 35.8181C141.918 35.8181 140.538 35.5421 139.242 34.9901C137.946 34.4381 136.818 33.6941 135.858 32.7581C134.898 31.8221 134.142 30.7301 133.59 29.4821C133.038 28.2101 132.762 26.8541 132.762 25.4141ZM143.346 31.4261C144.138 31.4261 144.882 31.2701 145.578 30.9581C146.298 30.6461 146.922 30.2141 147.45 29.6621C147.978 29.1101 148.386 28.4741 148.674 27.7541C148.986 27.0101 149.142 26.2301 149.142 25.4141C149.142 24.5501 148.986 23.7581 148.674 23.0381C148.386 22.2941 147.978 21.6461 147.45 21.0941C146.922 20.5421 146.298 20.1101 145.578 19.7981C144.858 19.4861 144.09 19.3301 143.274 19.3301C142.506 19.3301 141.774 19.4981 141.078 19.8341C140.382 20.1461 139.77 20.5781 139.242 21.1301C138.738 21.6581 138.33 22.2941 138.018 23.0381C137.73 23.7581 137.586 24.5381 137.586 25.3781C137.586 26.2181 137.73 27.0101 138.018 27.7541C138.33 28.4741 138.75 29.1101 139.278 29.6621C139.806 30.2141 140.418 30.6461 141.114 30.9581C141.81 31.2701 142.554 31.4261 143.346 31.4261ZM162.625 25.3061L155.461 15.4061H161.041L167.305 24.6941V15.4061H172.093V24.6941L178.357 15.4061H183.937L176.773 25.3061L184.369 35.3501H178.537L172.093 26.0621V35.3501H167.305V26.0621L160.861 35.3501H155.029L162.625 25.3061ZM186.397 15.4061H191.185V24.5861L198.097 15.4061H203.893L195.937 25.3061L204.325 35.3501H198.097L191.185 26.1701V35.3501H186.397V15.4061ZM205.395 25.4501C205.395 23.9381 205.647 22.5461 206.151 21.2741C206.655 19.9781 207.351 18.8621 208.239 17.9261C209.151 16.9901 210.231 16.2581 211.479 15.7301C212.727 15.2021 214.083 14.9381 215.547 14.9381C216.987 14.9381 218.223 15.1901 219.255 15.6941C220.287 16.1741 221.223 16.9661 222.063 18.0701V15.4061H226.455V35.3501H222.063V32.7581C221.103 33.8621 220.107 34.6541 219.075 35.1341C218.067 35.5901 216.855 35.8181 215.439 35.8181C213.975 35.8181 212.631 35.5661 211.407 35.0621C210.183 34.5341 209.127 33.8141 208.239 32.9021C207.351 31.9661 206.655 30.8741 206.151 29.6261C205.647 28.3541 205.395 26.9621 205.395 25.4501ZM210.219 25.5581C210.219 26.4221 210.363 27.2141 210.651 27.9341C210.939 28.6541 211.335 29.2781 211.839 29.8061C212.367 30.3101 212.991 30.7061 213.711 30.9941C214.455 31.2821 215.259 31.4261 216.123 31.4261C216.987 31.4261 217.767 31.2821 218.463 30.9941C219.183 30.7061 219.795 30.2981 220.299 29.7701C220.827 29.2421 221.223 28.6181 221.487 27.8981C221.775 27.1541 221.919 26.3381 221.919 25.4501C221.919 24.5381 221.775 23.7101 221.487 22.9661C221.199 22.2221 220.791 21.5861 220.263 21.0581C219.735 20.5061 219.099 20.0861 218.355 19.7981C217.635 19.4861 216.843 19.3301 215.979 19.3301C215.139 19.3301 214.359 19.4861 213.639 19.7981C212.943 20.1101 212.343 20.5421 211.839 21.0941C211.335 21.6461 210.939 22.3061 210.651 23.0741C210.363 23.8181 210.219 24.6461 210.219 25.5581Z" fill="#FF7425"/>
</g>
<defs>
<clipPath id="clip0_243_755">
<rect width="229" height="48" fill="white"/>
</clipPath>
</defs>
</svg>
