<svg width="229" height="48" viewBox="0 0 229 48" fill="none" xmlns="http://www.w3.org/2000/svg">
<g clip-path="url(#clip0_244_1691)">
<path d="M26.1864 42.7616H0V48.0112H26.1864V42.7616Z" fill="#FF7425"/>
<path d="M-0.444 8.74601H5.028C8.532 8.74601 11.112 9.32201 12.768 10.474C14.424 11.602 15.252 13.39 15.252 15.838C15.252 17.11 15.024 18.13 14.568 18.898C14.136 19.642 13.38 20.29 12.3 20.842C13.908 21.49 15.06 22.33 15.756 23.362C16.476 24.394 16.836 25.75 16.836 27.43C16.836 29.974 15.948 31.93 14.172 33.298C12.42 34.666 9.912 35.35 6.648 35.35H-0.444V8.74601ZM6.936 30.634C8.664 30.634 9.912 30.37 10.68 29.842C11.472 29.314 11.868 28.462 11.868 27.286C11.868 26.23 11.556 25.39 10.932 24.766C10.308 24.142 9.468 23.83 8.412 23.83H4.488V30.634H6.936ZM7.656 19.006C8.496 19.006 9.144 18.766 9.6 18.286C10.08 17.782 10.32 17.11 10.32 16.27C10.32 14.47 9.048 13.57 6.504 13.57H4.488V19.006H7.656ZM20.0729 15.406H24.8249V28.582L33.7529 15.406H38.6129V35.35H33.8609V22.174L24.9329 35.35H20.0729V15.406ZM48.9826 15.406H52.7266L61.0426 35.35H55.9306L50.8546 22.102L45.7786 35.35H40.6666L48.9826 15.406ZM63.1042 15.406H67.8922V24.586L74.8042 15.406H80.6002L72.6442 25.306L81.0322 35.35H74.8042L67.8922 26.17V35.35H63.1042V15.406ZM82.1018 25.45C82.1018 23.938 82.3538 22.546 82.8578 21.274C83.3618 19.978 84.0578 18.862 84.9458 17.926C85.8578 16.99 86.9378 16.258 88.1858 15.73C89.4338 15.202 90.7898 14.938 92.2538 14.938C93.6938 14.938 94.9298 15.19 95.9618 15.694C96.9938 16.174 97.9298 16.966 98.7698 18.07V15.406H103.162V35.35H98.7698V32.758C97.8098 33.862 96.8138 34.654 95.7818 35.134C94.7738 35.59 93.5618 35.818 92.1458 35.818C90.6818 35.818 89.3378 35.566 88.1138 35.062C86.8898 34.534 85.8338 33.814 84.9458 32.902C84.0578 31.966 83.3618 30.874 82.8578 29.626C82.3538 28.354 82.1018 26.962 82.1018 25.45ZM86.9258 25.558C86.9258 26.422 87.0698 27.214 87.3578 27.934C87.6458 28.654 88.0418 29.278 88.5458 29.806C89.0738 30.31 89.6978 30.706 90.4178 30.994C91.1618 31.282 91.9658 31.426 92.8298 31.426C93.6938 31.426 94.4738 31.282 95.1698 30.994C95.8898 30.706 96.5018 30.298 97.0058 29.77C97.5338 29.242 97.9298 28.618 98.1938 27.898C98.4818 27.154 98.6258 26.338 98.6258 25.45C98.6258 24.538 98.4818 23.71 98.1938 22.966C97.9058 22.222 97.4978 21.586 96.9698 21.058C96.4418 20.506 95.8058 20.086 95.0618 19.798C94.3418 19.486 93.5498 19.33 92.6858 19.33C91.8458 19.33 91.0658 19.486 90.3457 19.798C89.6498 20.11 89.0498 20.542 88.5458 21.094C88.0418 21.646 87.6458 22.306 87.3578 23.074C87.0698 23.818 86.9258 24.646 86.9258 25.558Z" fill="black"/>
<path d="M116.481 8.74601H120.369L131.493 35.35H126.165L118.425 15.514L110.685 35.35H105.357L116.481 8.74601ZM132.762 25.414C132.762 23.95 133.038 22.582 133.59 21.31C134.142 20.038 134.898 18.934 135.858 17.998C136.818 17.038 137.946 16.294 139.242 15.766C140.562 15.214 141.966 14.938 143.454 14.938C144.894 14.938 146.25 15.214 147.522 15.766C148.818 16.318 149.934 17.074 150.87 18.034C151.83 18.97 152.586 20.074 153.138 21.346C153.69 22.618 153.966 23.974 153.966 25.414C153.966 26.854 153.69 28.21 153.138 29.482C152.586 30.73 151.83 31.822 150.87 32.758C149.91 33.694 148.782 34.438 147.486 34.99C146.214 35.542 144.846 35.818 143.382 35.818C141.918 35.818 140.538 35.542 139.242 34.99C137.946 34.438 136.818 33.694 135.858 32.758C134.898 31.822 134.142 30.73 133.59 29.482C133.038 28.21 132.762 26.854 132.762 25.414ZM143.346 31.426C144.138 31.426 144.882 31.27 145.578 30.958C146.298 30.646 146.922 30.214 147.45 29.662C147.978 29.11 148.386 28.474 148.674 27.754C148.986 27.01 149.142 26.23 149.142 25.414C149.142 24.55 148.986 23.758 148.674 23.038C148.386 22.294 147.978 21.646 147.45 21.094C146.922 20.542 146.298 20.11 145.578 19.798C144.858 19.486 144.09 19.33 143.274 19.33C142.506 19.33 141.774 19.498 141.078 19.834C140.382 20.146 139.77 20.578 139.242 21.13C138.738 21.658 138.33 22.294 138.018 23.038C137.73 23.758 137.586 24.538 137.586 25.378C137.586 26.218 137.73 27.01 138.018 27.754C138.33 28.474 138.75 29.11 139.278 29.662C139.806 30.214 140.418 30.646 141.114 30.958C141.81 31.27 142.554 31.426 143.346 31.426ZM162.625 25.306L155.461 15.406H161.041L167.305 24.694V15.406H172.093V24.694L178.357 15.406H183.937L176.773 25.306L184.369 35.35H178.537L172.093 26.062V35.35H167.305V26.062L160.861 35.35H155.029L162.625 25.306ZM186.397 15.406H191.185V24.586L198.097 15.406H203.893L195.937 25.306L204.325 35.35H198.097L191.185 26.17V35.35H186.397V15.406ZM205.395 25.45C205.395 23.938 205.647 22.546 206.151 21.274C206.655 19.978 207.351 18.862 208.239 17.926C209.151 16.99 210.231 16.258 211.479 15.73C212.727 15.202 214.083 14.938 215.547 14.938C216.987 14.938 218.223 15.19 219.255 15.694C220.287 16.174 221.223 16.966 222.063 18.07V15.406H226.455V35.35H222.063V32.758C221.103 33.862 220.107 34.654 219.075 35.134C218.067 35.59 216.855 35.818 215.439 35.818C213.975 35.818 212.631 35.566 211.407 35.062C210.183 34.534 209.127 33.814 208.239 32.902C207.351 31.966 206.655 30.874 206.151 29.626C205.647 28.354 205.395 26.962 205.395 25.45ZM210.219 25.558C210.219 26.422 210.363 27.214 210.651 27.934C210.939 28.654 211.335 29.278 211.839 29.806C212.367 30.31 212.991 30.706 213.711 30.994C214.455 31.282 215.259 31.426 216.123 31.426C216.987 31.426 217.767 31.282 218.463 30.994C219.183 30.706 219.795 30.298 220.299 29.77C220.827 29.242 221.223 28.618 221.487 27.898C221.775 27.154 221.919 26.338 221.919 25.45C221.919 24.538 221.775 23.71 221.487 22.966C221.199 22.222 220.791 21.586 220.263 21.058C219.735 20.506 219.099 20.086 218.355 19.798C217.635 19.486 216.843 19.33 215.979 19.33C215.139 19.33 214.359 19.486 213.639 19.798C212.943 20.11 212.343 20.542 211.839 21.094C211.335 21.646 210.939 22.306 210.651 23.074C210.363 23.818 210.219 24.646 210.219 25.558Z" fill="#FF7425"/>
</g>
<defs>
<clipPath id="clip0_244_1691">
<rect width="229" height="48" fill="white"/>
</clipPath>
</defs>
</svg>
